<?xml version="1.0" encoding="UTF-8"?>
<!--
    Copyright (c) 2007, Sun Microsystems Inc.

    Redistribution and use in source and binary forms, with or without
    modification, are permitted provided that the following conditions
    are met:

    1. Redistributions of source code must retain the above copyright
       notice, this list of conditions and the following disclaimer.

    2. Redistributions in binary form must reproduce the above copyright
       notice, this list of conditions and the following disclaimer in the
       documentation and/or other materials provided with the distribution.

    3. Neither the name of Sun Microsystems Inc. nor the names of its
       contributors may be used to endorse or promote products derived
       from this software without specific prior written permission.

    THIS SOFTWARE IS PROVIDED BY SUN MICROSYSTEMS INC. "AS IS" AND ANY
    EXPRESS OR IMPLIED WARRANTIES, INCLUDING, BUT NOT LIMITED TO, THE
    IMPLIED WARRANTIES OF MERCHANTABILITY AND FITNESS FOR A PARTICULAR
    PURPOSE ARE DISCLAIMED. IN NO EVENT SHALL SUN MICROSYSTEMS INC. BE
    LIABLE FOR ANY DIRECT, INDIRECT, INCIDENTAL, SPECIAL, EXEMPLARY,
    OR CONSEQUENTIAL DAMAGES (INCLUDING, BUT NOT LIMITED TO, PROCUREMENT
    OF SUBSTITUTE GOODS OR SERVICES; LOSS OF USE, DATA, OR PROFITS; OR
    BUSINESS INTERRUPTION) HOWEVER CAUSED AND ON ANY THEORY OF LIABILITY,
    WHETHER IN CONTRACT, STRICT LIABILITY, OR TORT (INCLUDING NEGLIGENCE
    OR OTHERWISE) ARISING IN ANY WAY OUT OF THE USE OF THIS SOFTWARE,
    EVEN IF ADVISED OF THE POSSIBILITY OF SUCH DAMAGE.
-->
<!-- Generator: Adobe Illustrator 13.0.0, SVG Export Plug-In . SVG Version: 6.00 Build 14948)  -->
<!DOCTYPE svg  PUBLIC '-//W3C//DTD SVG 1.1//EN'  'http://www.w3.org/Graphics/SVG/1.1/DTD/svg11.dtd'>
<svg width="512px" height="512px" viewBox="0 0 225.94 407.41" xmlns="http://www.w3.org/2000/svg">
<path d="m48.859 43.518c8.424 17.64 2.736 140.83-7.128 184.03-9.864 43.272-19.728 98.28-22.032 144.58-1.008 19.728 2.016 27.504 14.904 27.504 22.752 0 51.624-47.952 87.84-46.872 36.288 1.08 47.808 55.008 64.8 54.648s30.672-6.264 30.816-58.752c0.504-156.67-130.82-283.68-169.2-305.14z" clip-rule="evenodd" fill-rule="evenodd"/>
<path d="m162.76 168.73c7.992 13.464 28.368 3.096 29.232-12.096s-1.368-34.344-11.232-35.064-16.92-10.584-26.784-11.304-20.448 9.144-25.056-3.96 12.384-18.648 25.056-20.736c-11.304-11.304-17.928-23.832-22.896-36.864s-8.64-24.984 5.256-30.096 12.744 21.168 28.656 33.192c-4.68-17.712-6.408-25.056-6.048-35.352s-0.36-18.144 14.256-16.128 8.28 32.4 19.656 44.784c3.456-11.736 5.544-26.64 13.896-32.76s27.36-6.264 15.264 18.864 3.528 38.736-0.144 58.536-15.048 16.2-19.944 28.944 2.88 41.76-6.336 54.792-10.872 33.048-4.896 49.032c-18.36-17.136-27.936-53.784-27.936-53.784z" clip-rule="evenodd" fill-rule="evenodd"/>
<path d="m48.355 185.65c-7.416 50.832-33.192 56.88-34.488 77.976s6.84 23.112 6.336 42.624-17.856 27.432-19.944 38.016 8.928 13.968 15.336 13.968 12.816-28.08 15.408-45.936-8.496-28.368-8.496-40.608 16.056-34.632 13.104-14.976c13.32-21.024 19.657-47.809 12.744-71.064z" clip-rule="evenodd" fill-rule="evenodd"/>
<path d="m58.292 205.01c-5.616 27.504-40.68 181.08-22.824 183.02s43.272-47.52 84.888-47.16c41.688 0.36 58.104 55.44 68.256 55.08s16.848 3.6 17.928-58.464-36.792-141.34-59.184-176.26c-30.385 1.944-63.073 26.281-89.064 43.776z" clip-rule="evenodd" fill="#f8f8e8" fill-rule="evenodd"/>
<path d="m139.16 172.18c-1.95-18.251-19.12-25.421-35.661-23.168-13.889 1.893-32.403 13.613-34.107 28.64-1.921 16.937 11.402 32.522 28.361 33.203 15.03 0.604 31.176-6.668 37.93-20.79 2.73-5.704 3.797-11.578 3.477-17.885" fill="none"/>
<path d="m147.08 171.53c-1.662-17.195-14.407-27.988-30.895-30.627-15.924-2.549-33.26 4.998-44.408 16.146-12.538 12.538-13.039 29.978-4.26 44.833 8.661 14.657 27.847 19.501 43.563 15.835 21.506-5.015 37.398-23.824 36-46.187"/>
<radialGradient id="a" cx="86.63" cy="167.07" r="54.716" gradientUnits="userSpaceOnUse">
<stop stop-color="#fff" offset="0"/>
<stop stop-color="#FBC8B4" offset=".0604"/>
<stop stop-color="#FBC3B0" offset=".0712"/>
<stop stop-color="#F7978B" offset=".1829"/>
<stop stop-color="#F4716B" offset=".2995"/>
<stop stop-color="#F15251" offset=".4199"/>
<stop stop-color="#EF3A3D" offset=".5453"/>
<stop stop-color="#EE292F" offset=".6778"/>
<stop stop-color="#ED1F27" offset=".822"/>
<stop stop-color="#ED1C24" offset="1"/>
</radialGradient>
<path d="m139.16 177.94c-1.493 15.627-13.947 28.182-28.944 31.824-15.87 3.854-33.393-2.257-39.096-18.576-2.912-8.332-2.37-16.879 2.637-24.198 4.223-6.171 11.033-11 17.779-14.066 13.924-6.326 33.832-7.029 43.531 7.077 3.675 5.346 4.318 11.639 4.093 17.939" fill="url(#a)" stroke="#000"/>
</svg>
